<svg xmlns="http://www.w3.org/2000/svg" width="32" height="32" viewBox="0 0 32 32">
  <path fill="#303030" fill-opacity=".6" fill-rule="evenodd"
        d="M21.5580583,22.4419417 C21.8021359,22.6860194 22.1978641,22.6860194 22.4419417,22.4419417 C22.6860194,22.1978641 22.6860194,21.8021359 22.4419417,21.5580583 L10.4419417,9.55805826 C10.1978641,9.31398058 9.80213594,9.31398058 9.55805826,9.55805826 C9.31398058,9.80213594 9.31398058,10.1978641 9.55805826,10.4419417 L21.5580583,22.4419417 Z M9.55805826,21.5580583 C9.31398058,21.8021359 9.31398058,22.1978641 9.55805826,22.4419417 C9.80213594,22.6860194 10.1978641,22.6860194 10.4419417,22.4419417 L14.129353,18.7545305 C14.3734306,18.5104528 14.3734306,18.1147247 14.129353,17.870647 C13.8852753,17.6265694 13.4895472,17.6265694 13.2454695,17.870647 L9.55805826,21.5580583 Z M17.8228399,13.2932767 C17.5787622,13.5373543 17.5787622,13.9330825 17.8228399,14.1771601 C18.0669175,14.4212378 18.4626457,14.4212378 18.7067233,14.1771601 L22.4419417,10.4419417 C22.6860194,10.1978641 22.6860194,9.80213594 22.4419417,9.55805826 C22.1978641,9.31398058 21.8021359,9.31398058 21.5580583,9.55805826 L17.8228399,13.2932767 Z"/>
</svg>
