<svg xmlns="http://www.w3.org/2000/svg" width="64" height="100.59" viewBox="0 0 64 100.59">
  <defs>
    <style>
      .cls-1 {
        fill: #9ca542;
        fill-rule: evenodd;
      }
    </style>
  </defs>
  <path id="_1.svg" data-name="1.svg" class="cls-1" d="M1444.95,3152.15h-63.99v9.84h63.99v-9.84Zm-11.45-1.58,6.32-82.29c-27.26-19.29-24.49,8.27-54.51,7.09l6.32,75.2h41.87Zm-8.67-15.55h-23.94v-6.89h23.94v6.89Zm-2.55-64.59a0.068,0.068,0,0,1,.07-0.07h1.94a2.184,2.184,0,0,1,.63-0.58v-2.43a0.068,0.068,0,0,1,.07-0.07h2.06a0.067,0.067,0,0,1,.06.07v2.48a1.983,1.983,0,0,1,.55.53h2.02a0.068,0.068,0,0,1,.07.07v2.05a0.067,0.067,0,0,1-.07.06h-1.92a2.106,2.106,0,0,1-.65.71v6.85h-2.19v-6.81a2.1,2.1,0,0,1-.73-0.75h-1.84a0.067,0.067,0,0,1-.07-0.06v-2.05Zm-17.45,25.12c0.53-2.37.63-4.22,3.87-5.18a7.462,7.462,0,0,1,3.84,0,7.5,7.5,0,0,1,3.85,0c3.25,0.96,3.33,2.81,3.87,5.18a32.046,32.046,0,0,0,4.02,9.98h-7.84a9.19,9.19,0,0,0,2.44-5.8c0-.78-0.16-0.88-0.42-0.55a7.914,7.914,0,0,1-3.24,6.59c-0.01.15-.05,0.29-0.05,0.45a4.91,4.91,0,0,0,.09.94h1.53a7.425,7.425,0,0,1,6.32,4.54l1.2,3.71a13.893,13.893,0,0,1-23.14-.35l1.35-4.33c1.07-2.89,4.27-3.57,6.09-3.57h1.58a7.3,7.3,0,0,0,.08-0.94,0.675,0.675,0,0,0-.02-0.14,4.778,4.778,0,0,1-.33-0.47,7.953,7.953,0,0,1-3.04-6.35c-0.27-.42-0.43-0.38-0.43.47a9.077,9.077,0,0,0,2.47,5.8h-8.1A32.516,32.516,0,0,0,1404.83,3095.55Z" transform="translate(-1380.97 -3061.41)"/>
</svg>
