<svg xmlns="http://www.w3.org/2000/svg" width="47" height="47.031" viewBox="0 0 47 47.031" id="svg-1">
  <defs id="defs-2">
    <style id="style-3">
	.cls-1 { fill-rule: evenodd; }
</style>
  </defs>
  <path id="search.svg" class="cls-1" d="M503.376,761.43a2.077,2.077,0,0,1-2.908,0L490,751.126a20.593,20.593,0,0,1-12.507,4.225A20.185,20.185,0,1,1,498,735.17a19.9,19.9,0,0,1-5.007,13.175l10.385,10.223A2,2,0,0,1,503.376,761.43ZM477.5,719.035a16.135,16.135,0,1,0,16.387,16.136A16.292,16.292,0,0,0,477.5,719.035Zm-11.532,16.13h-2.056A13.5,13.5,0,0,1,477.5,721.789v2.025A11.459,11.459,0,0,0,465.965,735.165Z" transform="translate(-457 -715)" fill="#9ca542" fill-opacity="1" type="solidColor"></path>
</svg>