<svg xmlns="http://www.w3.org/2000/svg" width="32" height="32" viewBox="0 0 32 32">
  <path fill="#303030" fill-rule="evenodd"
        d="M22.5580583,23.4419417 C22.8021359,23.6860194 23.1978641,23.6860194 23.4419417,23.4419417 C23.6860194,23.1978641 23.6860194,22.8021359 23.4419417,22.5580583 L9.44194174,8.55805826 C9.19786406,8.31398058 8.80213594,8.31398058 8.55805826,8.55805826 C8.31398058,8.80213594 8.31398058,9.19786406 8.55805826,9.44194174 L22.5580583,23.4419417 Z M8.5585072,22.5576098 C8.31418183,22.8014395 8.31378004,23.1971674 8.55760978,23.4414928 C8.80143952,23.6858182 9.19716743,23.68622 9.4414928,23.4423902 L14.3447194,18.5491102 C14.5890448,18.3052804 14.5894466,17.9095525 14.3456169,17.6652272 C14.1017871,17.4209018 13.7060592,17.4205 13.4617338,17.6643297 L8.5585072,22.5576098 Z M17.7251143,13.4551644 C17.4826519,13.7008467 17.4852621,14.0965663 17.7309445,14.3390287 C17.9766268,14.5814911 18.3723463,14.5788808 18.6148087,14.3331985 L23.4448472,9.43901705 C23.6873096,9.19333472 23.6846994,8.79761522 23.439017,8.5551528 C23.1933347,8.31269038 22.7976152,8.31530063 22.5551528,8.56098295 L17.7251143,13.4551644 Z"/>
</svg>
