<svg xmlns="http://www.w3.org/2000/svg" width="86" height="84" viewBox="0 0 86 84">
  <defs>
    <style>
      .cls-1 {
        fill: #9ca542;
        fill-rule: evenodd;
      }
    </style>
  </defs>
  <path id="_2.svg" data-name="2.svg" class="cls-1" d="M1473.7,3151.98h68.6v-6.57h-68.6v6.57Zm-8.7,10.01h86l-5-8.24h-76Zm43-71.04c-7.19,0-13.02,6.72-13.02,15.01s5.83,15.02,13.02,15.02,13.02-6.72,13.02-15.02S1515.19,3090.95,1508,3090.95Zm10.1,22.48c-2.13,3.9-5.86,6.51-10.11,6.51s-7.96-2.59-10.09-6.47c0.56-5.66,7.28-6.43,7.31-6.41l0.27-.6a11.855,11.855,0,0,1-2.35-3.76,1.406,1.406,0,0,1-.69-1.23,1.836,1.836,0,0,1,.26-1.67c0.13-3.33,2.26-5.95,5.3-5.95s5.16,2.63,5.29,5.96a1.871,1.871,0,0,1,.25,1.66,1.413,1.413,0,0,1-.68,1.22,12.55,12.55,0,0,1-2.08,3.46l0.27,0.93C1514.16,3108.16,1517.75,3108.55,1518.1,3113.43Zm-11.67-4.56,1.36,2.53-1.42,4.6,1.7,2.42,1.62-2.42-1.34-4.6,1.35-2.53h-3.27Zm20.94,30.04-1.95,1.89c-0.04,1.03-.04,2.05-0.02,3.08l-0.12.02h13.02l-0.1-49.17c0-2.34-1.92-5.43-4.26-5.43l-6.22-2.37c-2.06-4.2-10.19-8.44-18.54-8.94h-1.95c-8.35.5-16.48,4.74-18.54,8.94l-6.23,2.37c-2.34,0-4.26,3.09-4.26,5.43l-0.5,49.17h13.02l-0.12-.02c0.02-1.03.02-2.05-.02-3.08l-1.95-1.89c-2.67,3.48-5.83-3.92-5.83-3.92,7.84-1,6.55,3.33,6.55,3.33-2.07-2.06-3.59-1.84-3.59-1.84a14.092,14.092,0,0,1,4.78,3.52,55.769,55.769,0,0,0-1.53-10.59c-1.74.31-3.55-1.25-4.51-4.46a0.972,0.972,0,0,1,.04-0.84,11.256,11.256,0,0,0,2.46,3.95,17.206,17.206,0,0,1-2.31-4.15,2.272,2.272,0,0,1,.27-0.26,1.562,1.562,0,0,1,.73-0.32,8.372,8.372,0,0,0,1.59,3.21,13.444,13.444,0,0,1-1.44-3.37,1.46,1.46,0,0,1,.59-0.37,3.626,3.626,0,0,1,1.2-.25,2.139,2.139,0,0,1,.93-0.48,2.024,2.024,0,0,1,1-.11c0.04,0,.08-0.01.12-0.01a3.989,3.989,0,0,1,.59-0.04c0.04,0.11.08,0.24,0.11,0.36a10.628,10.628,0,0,1,.18,4.2,8.1,8.1,0,0,0-.01-4.29,2.759,2.759,0,0,1-.08-0.27,0.7,0.7,0,0,1,.7.33c0.85,3.24.19,6.01-1.4,6.9a57.152,57.152,0,0,1,1.64,12.82,12.809,12.809,0,0,1,3.96-4.56,5.433,5.433,0,0,0-3.39,2.79s-2.51-4.07,6.22-5.01c0,0-1.26,7.64-5.32,5.36l-1.47,2.6c0,0.25,0,.51-0.01.76h33.2c-0.01-.25-0.01-0.51-0.01-0.76l-1.47-2.6c-4.06,2.28-5.32-5.36-5.32-5.36,8.73,0.94,6.22,5.01,6.22,5.01a5.433,5.433,0,0,0-3.39-2.79,12.809,12.809,0,0,1,3.96,4.56,57.152,57.152,0,0,1,1.64-12.82c-1.59-.89-2.25-3.66-1.4-6.9a0.7,0.7,0,0,1,.7-0.33,2.759,2.759,0,0,1-.08.27,8.1,8.1,0,0,0-.01,4.29,10.628,10.628,0,0,1,.18-4.2c0.03-.12.07-0.25,0.11-0.36a3.989,3.989,0,0,1,.59.04c0.04,0,.08.01,0.12,0.01a2.024,2.024,0,0,1,1,.11,2.139,2.139,0,0,1,.93.48,3.626,3.626,0,0,1,1.2.25,1.46,1.46,0,0,1,.59.37,13.444,13.444,0,0,1-1.44,3.37,8.372,8.372,0,0,0,1.59-3.21,1.562,1.562,0,0,1,.73.32,2.272,2.272,0,0,1,.27.26,17.206,17.206,0,0,1-2.31,4.15,11.256,11.256,0,0,0,2.46-3.95,0.972,0.972,0,0,1,.04.84c-0.96,3.21-2.77,4.77-4.51,4.46a55.769,55.769,0,0,0-1.53,10.59,14.092,14.092,0,0,1,4.78-3.52s-1.52-.22-3.59,1.84c0,0-1.29-4.33,6.55-3.33C1533.2,3134.99,1530.04,3142.39,1527.37,3138.91Zm-19.16-14.55c-8.62,0-15.64-7.97-15.64-17.79,0-9.8,7.02-17.78,15.64-17.78s15.62,7.98,15.62,17.78C1523.83,3116.39,1516.82,3124.36,1508.21,3124.36Z" transform="translate(-1465 -3078)"/>
</svg>
