<svg xmlns="http://www.w3.org/2000/svg" width="16.41" height="18" viewBox="0 0 16.41 18" id="svg-1">
  <defs id="defs-2">
    <style id="style-3">
	.cls-1 { fill-rule: evenodd; }
</style>
  </defs>
  <path id="email.svg" class="cls-1" d="M1253.61,852.03h5.87a0.474,0.474,0,0,0,0-.947h-5.87A0.474,0.474,0,0,0,1253.61,852.03Zm10.56,0.121s-0.01-.01-0.01-0.016l-1.75-1.76V850.1a1.4,1.4,0,0,0-1.4-1.4h-0.28s0,0-.01-0.007l-2.54-2.542a2.287,2.287,0,0,0-3.23,0l-1.19,1.182a0.475,0.475,0,0,0,.67.673l1.19-1.184a1.338,1.338,0,0,1,1.89,0l1.88,1.879h-7.3a1.406,1.406,0,0,0-1.41,1.4v0.289l-1.7,1.7a2.293,2.293,0,0,0-.63,1.569V861.2a2.292,2.292,0,0,0,2.29,2.285h11.81a2.292,2.292,0,0,0,2.29-2.285v-7.548A2.258,2.258,0,0,0,1264.17,852.151Zm-13.49-.425v0.536a0.48,0.48,0,0,0,.48.474,0.472,0.472,0,0,0,.47-0.474V850.1a0.46,0.46,0,0,1,.46-0.454h8.92a0.452,0.452,0,0,1,.45.454v2.162a0.475,0.475,0,0,0,.95,0v-0.547l0.7,0.707-4.4,4.406-0.53-.527a2.254,2.254,0,0,0-1.61-.67,2.277,2.277,0,0,0-1.62.67l-0.53.527-4.42-4.422Zm13.11,9.477a1.339,1.339,0,0,1-1.34,1.337h-11.81a1.339,1.339,0,0,1-1.34-1.337v-7.548a1.435,1.435,0,0,1,.1-0.507l4.35,4.35-3.18,3.186a0.465,0.465,0,0,0,0,.67,0.474,0.474,0,0,0,.67,0l4.38-4.383a1.335,1.335,0,0,1,1.89,0l4.47,4.463a0.457,0.457,0,0,0,.33.139,0.5,0.5,0,0,0,.34-0.139,0.483,0.483,0,0,0,0-.67l-3.27-3.266,4.32-4.322a1.3,1.3,0,0,1,.09.479V861.2Zm-3.84-7.372a0.472,0.472,0,0,0-.47-0.474h-5.87a0.474,0.474,0,0,0,0,.948h5.87A0.472,0.472,0,0,0,1259.95,853.831Z" transform="translate(-1248.34 -845.5)" fill="#9ca542" fill-opacity="1" type="solidColor"></path>
</svg>