<svg xmlns="http://www.w3.org/2000/svg" width="29.188" height="29.906" viewBox="0 0 29.188 29.906" id="svg-1">
  <defs id="defs-2">
    <style id="style-3">
	.cls-1 { fill-rule: evenodd; }
</style>
  </defs>
  <path id="close1.svg" class="cls-1" d="M275.01,407.818a1.5,1.5,0,0,1-2.121-2.121l8.485-8.486a1.5,1.5,0,0,1,2.122,2.122Zm8.486,16.971a1.5,1.5,0,0,1-2.122,0l-26.163-26.163a1.5,1.5,0,0,1,2.122-2.122L283.5,422.667A1.5,1.5,0,0,1,283.5,424.789Zm-19.8-9.9a1.5,1.5,0,0,1,2.121,2.121l-8.485,8.486a1.5,1.5,0,0,1-2.122-2.122Z" transform="translate(-254.781 -396.063)" fill="#ffffff" fill-opacity="1" type="solidColor"></path>
</svg>