<svg xmlns="http://www.w3.org/2000/svg" width="12" height="12" viewBox="0 0 12 12">
  <path fill="#E4442F" fill-opacity=".6" fill-rule="evenodd"
        d="M5.436056,5.90848873 L3.4147518,5.25172718 C3.0995994,5.14932796 2.92712887,4.81083548 3.02952809,4.49568308 C3.13192731,4.18053067 3.47041979,4.00806014 3.7855722,4.11045936 L5.86109604,4.78483794 L5.86109604,2.6 C5.86109604,2.26862915 6.12972519,2 6.46109604,2 C6.79246689,2 7.06109604,2.26862915 7.06109604,2.6 L7.06109604,4.79500642 L9.16791525,4.11045936 C9.48306765,4.00806014 9.82156013,4.18053067 9.92395935,4.49568308 C10.0263586,4.81083548 9.85388805,5.14932796 9.53873564,5.25172718 L7.4421122,5.93296143 L8.99118373,8.06507547 C9.18595863,8.33316012 9.12652933,8.70838192 8.85844468,8.90315682 C8.59036003,9.09793171 8.21513823,9.03850242 8.02036333,8.77041777 L6.43019387,6.58173727 L4.84002441,8.77041777 C4.64524951,9.03850242 4.27002771,9.09793171 4.00194306,8.90315682 C3.73385841,8.70838192 3.67442911,8.33316012 3.86920401,8.06507547 L5.436056,5.90848873 Z"/>
</svg>
