<svg xmlns="http://www.w3.org/2000/svg" width="12.56" height="18" viewBox="0 0 12.56 18" id="svg-1">
  <defs id="defs-2">
    <style id="style-3">
	.cls-1 { fill-rule: evenodd; }
</style>
  </defs>
  <path id="placeholder.svg" class="cls-1" d="M1280.28,848.932a3.127,3.127,0,0,0,0,6.253,3.09,3.09,0,0,0,1.12-.207,0.479,0.479,0,0,0,.27-0.612,0.471,0.471,0,0,0-.61-0.272,2.179,2.179,0,1,1,1.4-2.036,2.1,2.1,0,0,1-.15.782,0.476,0.476,0,0,0,.89.34,3.069,3.069,0,0,0,.21-1.122A3.136,3.136,0,0,0,1280.28,848.932Zm0-3.155a6.283,6.283,0,0,0-5.81,8.667l0.04,0.11c0.01,0.012.01,0.024,0.02,0.036l3.74,7.92a2.225,2.225,0,0,0,4.02,0l3.75-7.948,0.03-.064,0.01-.02A6.287,6.287,0,0,0,1280.28,845.777Zm4.91,8.35c0,0.015-.01.031-0.01,0.046l-3.75,7.928a1.272,1.272,0,0,1-2.3,0l-3.74-7.9-0.03-.093c0-.008-0.01-0.015-0.01-0.022a5.22,5.22,0,0,1-.4-2.03,5.33,5.33,0,1,1,10.66,0A5.253,5.253,0,0,1,1285.19,854.127Z" transform="translate(-1274 -845.781)" fill="#9ca542" fill-opacity="1" type="solidColor"></path>
</svg>