<?xml version="1.0" encoding="utf-8"?><svg xmlns:xlink="http://www.w3.org/1999/xlink" id="-anim_keybord" image-rendering="auto" baseProfile="basic" version="1.1" x="0px" y="0px" width="22" height="16" xmlns="http://www.w3.org/2000/svg"><defs><filter id="filter" filterUnits="objectBoundingBox" width="100%" height="100%" x="0%" y="0%"><feColorMatrix type="matrix" in="SourceGraphic" result="colorTrans" values="1 0 0 0 0 0 1 0 0 0 0 0 1 0 0 0 0 0 0.3 0"/></filter><filter id="filter6" filterUnits="objectBoundingBox" width="100%" height="100%" x="0%" y="0%"><feColorMatrix type="matrix" in="SourceGraphic" result="colorTrans" values="1 0 0 0 0 0 1 0 0 0 0 0 1 0 0 0 0 0 0.3 0"/></filter><filter id="filter10" filterUnits="objectBoundingBox" width="100%" height="100%" x="0%" y="0%"><feColorMatrix type="matrix" in="SourceGraphic" result="colorTrans" values="1 0 0 0 0 0 1 0 0 0 0 0 1 0 0 0 0 0 0.3 0"/></filter><symbol id="Sprite_sprite_27" overflow="visible"><use xlink:href="#Shape_shape_1" transform="matrix(0.219 0 0 1 0 0)"/></symbol><symbol id="Shape_shape_1" overflow="visible"><path fill="#303030" d="M0.5,0Q0,0 0,0.5L0,1.5Q0,1.95 0.5,2L8.6,2Q9.15,2 9.15,1.5L9.15,0.5Q9.15,0 8.6,0L0.5,0"/></symbol></defs><g id="Scene_1" overflow="visible"><g id="Sprite_sprite_15" transform="matrix(1 0 0 1 2 3)"><g id="Sprite_sprite_26" filter="url(#filter10)"><use xlink:href="#Sprite_sprite_27" transform="matrix(1 0 0 1 1 1)"/></g><g id="Sprite_sprite_25" transform="matrix(1 0 0 1 2.6 0)"><animate attributeName="opacity" repeatCount="indefinite" dur="2.25s" keyTimes="0;0.037;0.074;0.111;0.148;0.149;0.185;0.222;0.259;0.296;0.333;0.334;0.667;0.704;0.741;0.778;0.814;0.815;1" values="0.3;0.6;0.5;0.4;0.4;0.3;0.3;0.6;0.5;0.4;0.4;0.3;0.3;0.6;0.5;0.4;0.4;0.3;0.3" calcMode="discrete"/><use xlink:href="#Sprite_sprite_27" transform="matrix(1 0 0 1 1.4 1)"/></g><g id="Sprite_sprite_24" transform="matrix(1 0 0 1 7.2 0)"><animate attributeName="opacity" repeatCount="indefinite" dur="2.25s" keyTimes="0;0.407;0.444;0.481;0.519;0.555;0.556;1" values="0.3;0.3;0.6;0.5;0.4;0.4;0.3;0.3" calcMode="discrete"/><use xlink:href="#Sprite_sprite_27" transform="matrix(1 0 0 1 -0.149 1)"/></g><g id="Sprite_sprite_23" transform="matrix(1 0 0 1 11 0)"><animate attributeName="opacity" repeatCount="indefinite" dur="2.25s" keyTimes="0;0.074;0.111;0.148;0.185;0.222;0.223;0.63;0.667;0.704;0.741;0.777;0.778;1" values="0.3;0.3;0.6;0.5;0.4;0.4;0.3;0.3;0.6;0.5;0.4;0.4;0.3;0.3" calcMode="discrete"/><use xlink:href="#Sprite_sprite_27" transform="matrix(1 0 0 1 -0.949 1)"/></g><g id="Sprite_sprite_22" transform="matrix(1 0 0 1 13 1)" filter="url(#filter6)"><use xlink:href="#Shape_shape_1" transform="matrix(0.328 0 0 1 0 0)"/></g><g id="Sprite_sprite_21" transform="matrix(1 0 0 1 0 3.15)"><animate attributeName="opacity" repeatCount="indefinite" dur="2.25s" keyTimes="0;0.037;0.074;0.111;0.148;0.185;0.186;0.481;0.519;0.556;0.593;0.629;0.63;1" values="0.3;0.3;0.6;0.5;0.4;0.4;0.3;0.3;0.6;0.5;0.4;0.4;0.3;0.3" calcMode="discrete"/><use xlink:href="#Sprite_sprite_27" transform="matrix(1 0 0 1 3 0.85)"/></g><g id="Sprite_sprite_20" transform="matrix(1 0 0 1 13 3.3)"><animate attributeName="opacity" repeatCount="indefinite" dur="2.25s" keyTimes="0;0.259;0.296;0.333;0.37;0.407;0.408;0.593;0.63;0.667;0.704;0.74;0.741;1" values="0.3;0.3;0.6;0.5;0.4;0.4;0.3;0.3;0.6;0.5;0.4;0.4;0.3;0.3" calcMode="discrete"/><use xlink:href="#Sprite_sprite_27" transform="matrix(1 0 0 1 -0.949 0.7)"/></g><g id="Sprite_sprite_19" transform="matrix(1 0 0 1 5.15 2.95)"><animate attributeName="opacity" repeatCount="indefinite" dur="2.25s" keyTimes="0;0.296;0.333;0.37;0.407;0.444;0.445;0.852;0.889;0.926;0.963;1" values="0.3;0.3;0.6;0.5;0.4;0.4;0.3;0.3;0.6;0.5;0.4;0.3" calcMode="discrete"/><use xlink:href="#Sprite_sprite_27" transform="matrix(1 0 0 1 0.85 1.05)"/></g><g id="Sprite_sprite_18" transform="matrix(1 0 0 1 8.9 3.15)"><animate attributeName="opacity" repeatCount="indefinite" dur="2.25s" keyTimes="0;0.148;0.185;0.222;0.259;0.296;0.297;0.556;0.593;0.63;0.667;0.703;0.704;1" values="0.3;0.3;0.6;0.5;0.4;0.4;0.3;0.3;0.6;0.5;0.4;0.4;0.3;0.3" calcMode="discrete"/><use xlink:href="#Sprite_sprite_27" transform="matrix(1 0 0 1 0.1 0.85)"/></g><g id="Sprite_sprite_17" transform="matrix(1 0 0 1 3.1 7.1)"><animate attributeName="opacity" repeatCount="indefinite" dur="2.25s" keyTimes="0;0.333;0.37;0.407;0.444;0.481;0.482;0.704;0.741;0.778;0.815;0.851;0.852;1" values="0.3;0.3;0.6;0.5;0.4;0.4;0.3;0.3;0.6;0.5;0.4;0.4;0.3;0.3" calcMode="discrete"/><g id="Sprite_sprite_28" transform="matrix(0.984 0 0 1 0.9 -0.049)"><use xlink:href="#Shape_shape_1"/></g></g><g id="Sprite_sprite_16" transform="matrix(1 0 0 1 0 7.1)" filter="url(#filter)"><use xlink:href="#Sprite_sprite_27" transform="matrix(1 0 0 1 1 -0.049)"/><use xlink:href="#Sprite_sprite_27" transform="matrix(1 0 0 1 14 -0.049)"/></g></g></g></svg>