<svg xmlns="http://www.w3.org/2000/svg" width="15.687" height="17.812" viewBox="0 0 15.687 17.812" id="svg-1">
  <defs id="defs-2">
    <style id="style-3">
	.cls-1 { fill-rule: evenodd; }
</style>
  </defs>
  <path id="phone_.svg" class="cls-1" d="M624.315,267.7a0.652,0.652,0,0,0,.144-0.917,0.667,0.667,0,0,0-.926-0.142,0.652,0.652,0,0,0-.143.917A0.666,0.666,0,0,0,624.315,267.7Zm-1.871,1.355a0.651,0.651,0,0,0,.144-0.917,0.667,0.667,0,0,0-.926-0.141,0.651,0.651,0,0,0-.143.916A0.665,0.665,0,0,0,622.444,269.056Zm-1.871,1.356a0.652,0.652,0,0,0,.144-0.917,0.667,0.667,0,0,0-.926-0.142,0.652,0.652,0,0,0-.143.917A0.666,0.666,0,0,0,620.573,270.412Zm3.1,8.668a0.956,0.956,0,0,0-.03-0.087c0-.012-0.013-0.023-0.019-0.035s-0.018-.031-0.029-0.046l0,0a0.261,0.261,0,0,0-.027-0.03c-0.01-.01-0.018-0.022-0.028-0.032l-2.092-1.946a0.476,0.476,0,0,0-.669.02,0.466,0.466,0,0,0,.021.663l1.671,1.555a4.575,4.575,0,0,1-2.224.929h0a1.553,1.553,0,0,1-.72-0.171h0a0.271,0.271,0,0,0-.037-0.021,19.492,19.492,0,0,1-5.646-4.85l-0.156-.2a19.264,19.264,0,0,1-3.359-6.611c0-.009-0.006-0.02-0.009-0.028a1.261,1.261,0,0,1-.008-0.7,5.914,5.914,0,0,1,1.116-1.775l1.261,2.021a0.476,0.476,0,0,0,.651.152,0.466,0.466,0,0,0,.153-0.645l-1.561-2.5a0.411,0.411,0,0,0-.091-0.1,0.192,0.192,0,0,0-.018-0.022,0.476,0.476,0,0,0-.669.007,7.308,7.308,0,0,0-1.731,2.548,2.126,2.126,0,0,0-.01,1.286,20.284,20.284,0,0,0,3.528,6.949l0.157,0.2a20.52,20.52,0,0,0,5.936,5.095,2.474,2.474,0,0,0,1.213.308h0a6,6,0,0,0,3.252-1.441c0.013-.009.023-0.021,0.035-0.031s0.018-.014.027-0.023l0,0a0.5,0.5,0,0,0,.033-0.044,0.226,0.226,0,0,0,.023-0.031,0.361,0.361,0,0,0,.022-0.044c0.006-.013.013-0.025,0.018-0.039s0.008-.029.012-0.044,0.008-.029.01-0.043a0.263,0.263,0,0,0,0-.049,0.268,0.268,0,0,0,0-.04,0.426,0.426,0,0,0-.006-0.05C623.674,279.106,623.673,279.093,623.67,279.08Zm0.76-2.649a27.044,27.044,0,0,0-2.626-2.378,1.232,1.232,0,0,0-.938-0.3,1.438,1.438,0,0,0-.934.578c-0.139.172-.384,0.474-0.47,0.573a0.816,0.816,0,0,1-1.232.274,14.969,14.969,0,0,1-2.049-2.227c-0.009-.012-0.017-0.023-0.026-0.033a0.021,0.021,0,0,0,0-.006,0.325,0.325,0,0,0-.023-0.029,14.989,14.989,0,0,1-1.682-2.521,0.8,0.8,0,0,1,.569-1.114l0.061-.026a3.653,3.653,0,0,0,1.124-.672,1.229,1.229,0,0,0,.269-1.466,27.878,27.878,0,0,0-1.991-3.246,1.4,1.4,0,0,0-1.954-.406l0.522,0.782a0.447,0.447,0,0,1,.666.174,27.312,27.312,0,0,1,1.906,3.105,0.3,0.3,0,0,1-.086.394,2.946,2.946,0,0,1-.824.472c-0.052.021-.089,0.038-0.11,0.048a1.737,1.737,0,0,0-1.04,2.278,0.319,0.319,0,0,0,.019.048,15.676,15.676,0,0,0,1.814,2.739l0.012,0.013,0.018,0.025a15.754,15.754,0,0,0,2.233,2.413,0.437,0.437,0,0,0,.044.031,1.772,1.772,0,0,0,2.484-.441c0.1-.12.374-0.454,0.489-0.6l0.013-.016a0.523,0.523,0,0,1,.3-0.215,0.327,0.327,0,0,1,.228.1,25.8,25.8,0,0,1,2.5,2.25,0.428,0.428,0,0,0,.04.045c0.453,0.446.312,0.713,0.265,0.8a0.471,0.471,0,0,0,.419.686,0.476,0.476,0,0,0,.42-0.252A1.528,1.528,0,0,0,624.43,276.431Zm-5.728-4.663a0.653,0.653,0,0,0,.144-0.917,0.665,0.665,0,0,0-.926-0.142,0.651,0.651,0,0,0-.143.916A0.666,0.666,0,0,0,618.7,271.768Z" transform="translate(-609.313 -263.188)" fill="#9ca542" fill-opacity="1" type="solidColor"></path>
</svg>