<svg xmlns="http://www.w3.org/2000/svg" width="23" height="24.969" viewBox="0 0 23 24.969" id="svg-1">
  <defs id="defs-2">
    <style id="style-3">
	.cls-1 { fill-rule: evenodd; }
</style>
  </defs>
  <path id="cal.svg" class="cls-1" d="M1222.41,809.98a6.293,6.293,0,0,1,4.86,7.416,0.663,0.663,0,0,0,.51.776,0.722,0.722,0,0,0,.13.014,0.648,0.648,0,0,0,.64-0.527,7.61,7.61,0,0,0-5.88-8.969,0.653,0.653,0,0,0-.77.513A0.664,0.664,0,0,0,1222.41,809.98Zm-1.03,3.128a3.39,3.39,0,0,1,2.63,4.01,0.662,0.662,0,0,0,.51.776,0.641,0.641,0,0,0,.13.014,0.648,0.648,0,0,0,.64-0.526,4.719,4.719,0,0,0-3.64-5.564A0.659,0.659,0,0,0,1221.38,813.108Zm4.87,7.133a1.673,1.673,0,0,0-1.29-.421,1.982,1.982,0,0,0-1.29.812c-0.2.249-.53,0.667-0.65,0.805-0.79.929-1.33,0.619-1.7,0.384a20.961,20.961,0,0,1-2.83-3.124c-0.01-.017-0.02-0.032-0.03-0.046l-0.02-.017h0c-0.01-.012-0.01-0.024-0.02-0.035a20.978,20.978,0,0,1-2.33-3.54,1.133,1.133,0,0,1,.79-1.564c0.02-.009.04-0.021,0.08-0.037a5.059,5.059,0,0,0,1.56-.943,1.759,1.759,0,0,0,.37-2.059,40.567,40.567,0,0,0-2.75-4.558,1.914,1.914,0,0,0-2.7-.569l0.72,1.1a0.613,0.613,0,0,1,.92.244,39.232,39.232,0,0,1,2.63,4.361,0.418,0.418,0,0,1-.12.553,4.009,4.009,0,0,1-1.14.662c-0.07.03-.12,0.053-0.15,0.067a2.444,2.444,0,0,0-1.43,3.2,0.171,0.171,0,0,0,.02.068,22.235,22.235,0,0,0,2.51,3.845c0,0.007.01,0.014,0.01,0.021l0.03,0.033a21.858,21.858,0,0,0,3.08,3.388c0.02,0.016.04,0.03,0.06,0.044a2.421,2.421,0,0,0,3.43-.62c0.15-.171.53-0.648,0.68-0.839a0.044,0.044,0,0,1,.02-0.022,0.678,0.678,0,0,1,.41-0.3,0.454,0.454,0,0,1,.31.134,35.988,35.988,0,0,1,3.45,3.161,0.239,0.239,0,0,0,.05.063,0.887,0.887,0,0,1,.37,1.123,0.653,0.653,0,0,0,.58.964,0.638,0.638,0,0,0,.57-0.353,2.147,2.147,0,0,0-.57-2.638A37.163,37.163,0,0,0,1226.25,820.241Zm-8.69-.662h0a0.611,0.611,0,0,0,.16.072A0.644,0.644,0,0,1,1217.56,819.579Zm6.13-13.992a0.652,0.652,0,0,0-.77.513,0.663,0.663,0,0,0,.51.776,9.157,9.157,0,0,1,7.08,10.793,0.656,0.656,0,0,0,.51.777,0.572,0.572,0,0,0,.13.013,0.663,0.663,0,0,0,.64-0.526A10.475,10.475,0,0,0,1223.69,805.587Zm5.14,21.713a0.167,0.167,0,0,0-.02-0.067c-0.01-.019-0.01-0.037-0.02-0.055l-0.03-.054a0.2,0.2,0,0,0-.04-0.06v-0.008c-0.01-.016-0.03-0.029-0.04-0.044a0.142,0.142,0,0,0-.04-0.042l-2.89-2.733a0.646,0.646,0,0,0-.92.029,0.661,0.661,0,0,0,.03.93l2.31,2.183a6.284,6.284,0,0,1-3.07,1.3h0a2.109,2.109,0,0,1-.99-0.236h0q-0.03-.018-0.06-0.033a27,27,0,0,1-7.8-6.809l-0.21-.28a27.159,27.159,0,0,1-4.65-9.294V812a1.63,1.63,0,0,1-.01-0.986,8.108,8.108,0,0,1,1.54-2.492l1.74,2.837a0.635,0.635,0,0,0,.55.313,0.656,0.656,0,0,0,.56-1l-2.16-3.514a0.693,0.693,0,0,0-.12-0.146l-0.03-.029a0.645,0.645,0,0,0-.92.01,10.122,10.122,0,0,0-2.39,3.577,3.079,3.079,0,0,0-.02,1.806,28.57,28.57,0,0,0,4.88,9.757l0.21,0.28a28.516,28.516,0,0,0,8.2,7.153,3.349,3.349,0,0,0,1.67.433h0.01c1.19,0,2.7-.68,4.49-2.022,0.02-.016.03-0.034,0.05-0.052s0.02-.015.03-0.025,0,0,.01,0c0.02-.023.03-0.048,0.05-0.073a0.057,0.057,0,0,0,.02-0.032,0.253,0.253,0,0,0,.04-0.076c0.01-.014.01-0.027,0.02-0.041s0.01-.05.02-0.076,0.01-.03.01-0.046a0.22,0.22,0,0,0,.01-0.08v-0.046c0-.026-0.01-0.052-0.01-0.078A0.079,0.079,0,0,0,1228.83,827.3Z" transform="translate(-1209 -805.031)" fill-opacity="1" type="solidColor" fill="#9ca542"></path>
</svg>