<svg xmlns="http://www.w3.org/2000/svg" width="128.97" height="107" viewBox="0 0 128.97 107">
  <defs>
    <style>
      .cls-1 {
        fill: #9ca542;
        fill-rule: evenodd;
      }
    </style>
  </defs>
  <path id="l.svg" class="cls-1" d="M1434.04,483.534l3.51-1.728,1.8,3.667-2.24,1.1a1.448,1.448,0,0,0-.61,1.952l3.4,6.93a1.449,1.449,0,0,0,1.92.7l17.06-8.418a1.446,1.446,0,0,0,.61-1.951l-3.4-6.929a1.449,1.449,0,0,0-1.92-.706l-2.24,1.1-1.8-3.666,3.5-1.728-13.5-27.49-2.32,1.14c-6.3-8.6-13.61-13.253-18.34-10.922l7.9,16.072-6.84,3.376,4.32,8.78-7.55,3.721-0.77-1.578a1.654,1.654,0,0,0-2.21-.6l-18.06,8.469a3.769,3.769,0,0,1-.96.671l-1.42.7a1.738,1.738,0,0,0-.33,1.525c0.37,3.751,4.88,9.835,7.57,13.471,0.38,0.521.73,0.991,1.05,1.432l20-10.3a1.648,1.648,0,0,0,.87-2.112l-0.86-1.75,7.55-3.723Zm-12.86-7.1-2.87-5.845,7.54-3.723,2.87,5.844Zm-71.05,20.372a2.075,2.075,0,0,0-.3,2.2l7.11,14.474a2.323,2.323,0,0,0,3.2.8l3.02-1.559c-4.03-4.053-10.72-11.058-12.53-14.739A12.559,12.559,0,0,1,1350.13,496.808Zm50.87-.782c-2.02-3.221-9.73-12.059-10.32-18.007a4.429,4.429,0,0,1,1.62-4.256l1.73-.851a0.956,0.956,0,0,0,.43-1.267l-1.36-2.759a8.866,8.866,0,0,0-4.43-3.9l-2.43-.826a21.567,21.567,0,0,1-10.75-9.465l-7.04-14.313a4.727,4.727,0,0,0-5.51-2.477c-10.1,2.79-16.69,6.374-22.16,10.775a4.731,4.731,0,0,0-1.75,4.169,4.623,4.623,0,0,0,.47,1.636l7.71,15.708a9.467,9.467,0,0,1,.78,2.958,4.529,4.529,0,0,1,.03.722v0a19.307,19.307,0,0,0,.1,2.523,23.194,23.194,0,0,0,.36,2.342c1.02,4.775,3.32,15.091,4.74,17.963,2.35,4.761,14.98,16.927,14.98,16.927l0.01-.014a4.661,4.661,0,0,0,8.11-3.58,4.494,4.494,0,0,0-.46-1.606,4.671,4.671,0,0,0,8.84-2.527,4.51,4.51,0,0,0-.46-1.608,4.67,4.67,0,0,0,8.84-2.527,4.51,4.51,0,0,0-.46-1.608,4.671,4.671,0,0,0,8.84-2.526A4.5,4.5,0,0,0,1401,496.026Zm50.26,27.87V510.481h3.81v-3.162h-11.46v3.162h3.81V523.9h-16.74V543H1468V523.9h-16.74Z" transform="translate(-1339.03 -436)"/>
</svg>
