<svg xmlns="http://www.w3.org/2000/svg" width="117.97" height="125" viewBox="0 0 117.97 125">
  <defs>
    <style>
      .cls-1 {
        fill: #9ca542;
        fill-rule: evenodd;
      }
    </style>
  </defs>
  <path id="p.svg" class="cls-1" d="M1272.15,509.518l-5.53,16.529a114.691,114.691,0,0,0-21.94-5.829c-2.92,13.557-6.26,26.752-6.26,26.752A7.006,7.006,0,0,1,1232,552h-20.88a7.006,7.006,0,0,1-6.42-5.031s-3.32-13.126-6.28-26.791a93.153,93.153,0,0,0-20.88,5.754l-6.09-16.3a107.988,107.988,0,0,1,23.61-6.648c-0.06-.382-0.13-0.766-0.19-1.138-3.18.551-6.28,1.188-9.26,1.926a45.84,45.84,0,0,1-11.29-30.125c0-25.763,21.34-46.647,47.67-46.647s47.66,20.884,47.66,46.647a45.907,45.907,0,0,1-11.44,30.3c-3.28-.814-6.64-1.5-10.05-2.094-0.06.376-.12,0.754-0.18,1.143A129.856,129.856,0,0,1,1272.15,509.518Zm-25.08,7.994c0.66,0.122.99,0.189,1.65,0.321l0.75-3.585c1.65-2.825,2.5-4.225,4.26-7-0.72-.157-1.08-0.233-1.79-0.38-1.19,2.078-1.78,3.125-2.91,5.224-0.24-2.365-.38-3.551-0.67-5.917-0.35-.064-0.62-0.111-0.88-0.157-0.15.849-.3,1.717-0.47,2.6,0.27,1.69.48,3.135,0.76,5.3C1247.49,515.358,1247.35,516.076,1247.07,517.512Zm-24.69-13.72c-0.38,0-.76,0-1.26,0l0.05,11.381c0.5,0,.81,0,1.21,0V503.792Zm0,28.629V520.278c-0.14,0-.26.015-0.39,0.015-0.52,0-1.03-.046-1.54-0.062v12.19h1.93Zm-1.93-12.906c0.34,0,.67-0.013,1.01-0.013,0.31,0,.61.012,0.92,0.015V518.34c-0.65,0-1.29,0-1.93,0v1.176Zm-30.58-12.27c1.01,4.441,1.51,6.663,2.53,11.105,0.66-.145.99-0.215,1.65-0.351-0.96-4.453-1.44-6.683-2.4-11.134C1190.94,507.012,1190.58,507.087,1189.87,507.245Zm5.04-1.015c-0.54.1-.81,0.151-1.34,0.253,0.89,4.466,1.34,6.7,2.24,11.167,0.66-.128.99-0.189,1.65-0.309l-1.4-7.444c0.12,0.186.23,0.352,0.35,0.527-0.19-.957-0.37-1.893-0.54-2.819C1195.58,507.18,1195.27,506.734,1194.91,506.23Zm54.01-12.16c0,0.314-.01.659-0.03,1.017a6.094,6.094,0,0,0,2.12,1.1,7.82,7.82,0,0,1-.54-0.712,6.058,6.058,0,0,1,1.51-8.542,5.637,5.637,0,0,1,2.57-.842,5.392,5.392,0,0,0-5.65-.065,4.753,4.753,0,0,0-.67.533A45.27,45.27,0,0,1,1248.92,494.07Zm4.61,0.821a2.175,2.175,0,0,0,1.02-1.2,2.548,2.548,0,0,1-.27.182,2.344,2.344,0,0,1-3.19-.7,1.9,1.9,0,0,1-.27-0.942,1.882,1.882,0,0,0-.13,2.035A2.089,2.089,0,0,0,1253.53,494.891Zm-1.88-4.631a3.553,3.553,0,0,0-1.96,1.55,4.181,4.181,0,0,1,.49-0.2,3.665,3.665,0,0,1,4.71,2.039,3.12,3.12,0,0,1,.13,1.539,2.976,2.976,0,0,0,.83-3.112A3.274,3.274,0,0,0,1251.65,490.26Zm3.94,5.25c-1.69,1.65-4.51,1.636-6.73.113-0.04.741-.11,1.544-0.2,2.43,2,1.53,4.66,1.622,6.24.089a3.927,3.927,0,0,0,1.13-3.151A3.409,3.409,0,0,1,1255.59,495.51Zm-39.21,2.716a25.767,25.767,0,0,0,11.21,0h-5.21v-10.21h-1.93v10.21h-4.07Zm-22.41-3.874a7.566,7.566,0,0,1-.6,1.124,7.82,7.82,0,0,1-.54.712,5.99,5.99,0,0,0,1.24-.522C1194.02,495.2,1193.99,494.767,1193.97,494.352Zm-0.95-2.122a1.9,1.9,0,0,1-.27.942,2.344,2.344,0,0,1-3.19.7,1.818,1.818,0,0,1-.27-0.182,2.175,2.175,0,0,0,1.02,1.2,2.089,2.089,0,0,0,2.84-.626A1.882,1.882,0,0,0,1193.02,492.23Zm1.09,3.891a5.12,5.12,0,0,1-5.86-.611,3.409,3.409,0,0,1-.44-0.519,3.894,3.894,0,0,0,1.13,3.151,4.622,4.622,0,0,0,5.45.419C1194.28,497.692,1194.19,496.884,1194.11,496.121Zm-5.29-.931a3.236,3.236,0,0,1,.12-1.539,3.68,3.68,0,0,1,4.72-2.039,2.353,2.353,0,0,1,.26.107,1.533,1.533,0,0,1,.01-0.214,3.567,3.567,0,0,0-1.74-1.245,3.274,3.274,0,0,0-4.2,1.818A2.976,2.976,0,0,0,1188.82,495.19Zm3.04-8.256a5.48,5.48,0,0,1,2.17,2.606,37.665,37.665,0,0,1,.47-3.744,5.439,5.439,0,0,0-5.21.3A5.637,5.637,0,0,1,1191.86,486.934Zm-9.34,7.894a5.725,5.725,0,0,0,2.43,4.683,6.045,6.045,0,0,0,6.18.441,4.093,4.093,0,0,0,3.53.819,0.3,0.3,0,0,1,.05-0.016c-0.08-.538-0.16-1.058-0.23-1.566a5.24,5.24,0,0,1-3.96.159,3.552,3.552,0,0,0,.45.476,9.887,9.887,0,0,1-7.8-4.516,6.585,6.585,0,0,0,.82.421,5.844,5.844,0,0,0,4.55,2.582,6.257,6.257,0,0,1-1.8-2.286,6.4,6.4,0,0,1,4.08-8.784,5.9,5.9,0,0,0-4.36.181,5.66,5.66,0,0,0-3.34,5.957,5.5,5.5,0,0,1,.51-4.493,9.411,9.411,0,0,1,4.33-3.591,10.084,10.084,0,0,1,2.78-.739,5.182,5.182,0,0,0-.44.4,2.992,2.992,0,0,0-.3.419,5.715,5.715,0,0,1,4.6.059,5.848,5.848,0,0,1,.64-1.546,4.371,4.371,0,0,0-3.42,0,6,6,0,0,0-4.77-.037,5.846,5.846,0,0,0-3.21,3.414,3.783,3.783,0,0,0-2.94,2.366A4.508,4.508,0,0,0,1182.52,494.828Zm11.31-36.262a4.347,4.347,0,0,0-4.81-1.947,6.353,6.353,0,0,0-4.94-.949,6.264,6.264,0,0,0-4.45,3.732,4.506,4.506,0,0,0-3.18,2.491,4.358,4.358,0,0,0,.69,4.692,5.986,5.986,0,0,0,1.43,4.763,6.305,6.305,0,0,0,4.54,2.149,4.036,4.036,0,0,0,3.36,2.2,4.95,4.95,0,0,0,4.91-3.21,6.193,6.193,0,0,0,4.12-3.87,6.071,6.071,0,0,0-1.44-6.289A4.121,4.121,0,0,0,1193.83,458.566Zm19.12-22.859a6.4,6.4,0,0,0-6.34-1.739,4.328,4.328,0,0,0-7.53,1.636,6.16,6.16,0,0,0-3.19,3.81,6.047,6.047,0,0,0,1.24,5.6,4.338,4.338,0,0,0,.74,3.918,4.571,4.571,0,0,0,4.54,1.637,6.368,6.368,0,0,0,4.97,1.029,6.263,6.263,0,0,0,4.08-2.9,4.076,4.076,0,0,0,3.58-1.855,4.778,4.778,0,0,0-.56-5.753A6.059,6.059,0,0,0,1212.95,435.707Zm-16.71,37.939a24.626,24.626,0,0,0,1.31,7.9,6.1,6.1,0,0,1,3.16-.948h3.47l1.54-9.184h-1.37a1.472,1.472,0,0,1-1.46-1.47v-0.95a1.471,1.471,0,0,1,1.46-1.469h34.12a1.471,1.471,0,0,1,1.46,1.469v0.95a1.472,1.472,0,0,1-1.46,1.47h-1.37l1.55,9.184h3.17a6.443,6.443,0,0,1,4.28,1.8,24.524,24.524,0,0,0,1.63-8.756c0-13.916-11.53-25.2-25.74-25.2S1196.24,459.73,1196.24,473.646Zm51.85-34.232a6.175,6.175,0,0,0-3.2-3.81,4.274,4.274,0,0,0-4.03-3.217,4.318,4.318,0,0,0-3.5,1.581,6.4,6.4,0,0,0-6.34,1.739,6.059,6.059,0,0,0-1.53,5.389,4.778,4.778,0,0,0-.56,5.753,4.076,4.076,0,0,0,3.58,1.855,6.283,6.283,0,0,0,4.09,2.9,6.353,6.353,0,0,0,4.96-1.029,4.557,4.557,0,0,0,4.54-1.637,4.338,4.338,0,0,0,.74-3.918A6.078,6.078,0,0,0,1248.09,439.414Zm18.34,27.171a4.336,4.336,0,0,0,.68-4.692,4.475,4.475,0,0,0-3.17-2.492,6.265,6.265,0,0,0-4.45-3.731,6.345,6.345,0,0,0-4.94.949,4.347,4.347,0,0,0-4.81,1.947,4.092,4.092,0,0,0-.23,3.764,6.1,6.1,0,0,0-1.45,6.289,6.232,6.232,0,0,0,4.13,3.871,4.95,4.95,0,0,0,4.91,3.209,4.036,4.036,0,0,0,3.36-2.2,6.305,6.305,0,0,0,4.54-2.149A5.986,5.986,0,0,0,1266.43,466.585Zm-17.25,34.186a4.093,4.093,0,0,0,3.53-.819,6.048,6.048,0,0,0,6.18-.441,5.751,5.751,0,0,0,2.43-4.683,4.507,4.507,0,0,0,1.62-5.2,3.783,3.783,0,0,0-2.94-2.366,5.833,5.833,0,0,0-3.22-3.414,5.977,5.977,0,0,0-4.76.037,4.325,4.325,0,0,0-4.38.588,5.7,5.7,0,0,1,.42,1.2s0.03,0.158.09,0.439a5.666,5.666,0,0,1,5.69-.733,4.121,4.121,0,0,0-.3-0.419,5.182,5.182,0,0,0-.44-0.4,10.177,10.177,0,0,1,2.78.739,9.411,9.411,0,0,1,4.33,3.591,5.5,5.5,0,0,1,.51,4.493,5.665,5.665,0,0,0-3.33-5.957,5.925,5.925,0,0,0-4.37-.181,6.4,6.4,0,0,1,4.08,8.784,6.257,6.257,0,0,1-1.8,2.286,5.844,5.844,0,0,0,4.55-2.582,5.954,5.954,0,0,0,.82-0.421,9.887,9.887,0,0,1-7.8,4.516,4.329,4.329,0,0,0,.45-0.476,5.317,5.317,0,0,1-4.75-.59c-0.06.548-.13,1.119-0.22,1.711A4.384,4.384,0,0,0,1249.18,500.771Zm-20.46-.6v-0.394c-2.39-.107-4.8-0.178-7.22-0.178-2.48,0-4.95.074-7.4,0.187v0.385h6.35v0.607c0.64,0,1.28,0,1.93,0v-0.61h6.34Zm25.16-27.833a6.274,6.274,0,0,0,7.22-1.488,5.993,5.993,0,0,0,1.54-4.3,8.509,8.509,0,0,1-.58.752,7.066,7.066,0,0,1-9.82.616,6.875,6.875,0,0,1-1.83-2.5,6.016,6.016,0,0,0,1.29,5.327,5.824,5.824,0,0,0,.19.944,10.2,10.2,0,0,1-2.02-3.419,9.766,9.766,0,0,1-.29-5.771,4.023,4.023,0,0,0,.37.628,5.325,5.325,0,0,1,.76-3.066,5.671,5.671,0,0,1,5.37-2.713c-0.1-.073-0.2-0.148-0.31-0.219a10.817,10.817,0,0,1,3.07.226,10.68,10.68,0,0,1,4.2,1.936l-0.05,0c0.14,0.083.26,0.183,0.39,0.277a9.26,9.26,0,0,1,.89.854c-0.01-.029-0.02-0.059-0.03-0.091a5.6,5.6,0,0,1,.97,1.46,5.705,5.705,0,0,1-.89,6.157,5,5,0,0,0,.53-0.178,3.842,3.842,0,0,0,.55-0.314,10.055,10.055,0,0,1-1.62,2.546,10.214,10.214,0,0,1-4.8,3.149A6.307,6.307,0,0,1,1253.88,472.336Zm2.85-4.45a3.424,3.424,0,0,0,3.19-3.629,3.72,3.72,0,0,0-1.01-2.426,4.857,4.857,0,0,1,.05.546,3.823,3.823,0,0,1-3.57,4.07,3.524,3.524,0,0,1-1.64-.353A3.293,3.293,0,0,0,1256.73,467.886Zm0.33-5.083a2.182,2.182,0,0,1,1.06.018,2.1,2.1,0,0,0-2.08-.752,2.149,2.149,0,0,0-1.52,2.637,2.36,2.36,0,0,0,.93,1.386,3.379,3.379,0,0,1-.1-0.328A2.4,2.4,0,0,1,1257.06,462.8Zm-3.64-4.364c-2.71,1.413-3.92,4.382-2.7,6.626a4.3,4.3,0,0,0,2.92,2.1,4.337,4.337,0,0,1-.4-0.6c-1.37-2.518-.01-5.843,3.04-7.432a7.385,7.385,0,0,1,2.67-.8A5.9,5.9,0,0,0,1253.42,458.439Zm9.94,9.992a5.456,5.456,0,0,0,1.81-5.61c-0.86-2.953-4.22-4.6-7.52-3.684a6.437,6.437,0,0,0-3.7,2.66,8.708,8.708,0,0,1,.9-0.321c3.69-1.027,7.46.823,8.43,4.131A5.761,5.761,0,0,1,1263.36,468.431Zm-16.87-24.283a5.242,5.242,0,0,1-.08.554,9.081,9.081,0,0,1-.33,1.082,0.456,0.456,0,0,1,.07-0.068,5.8,5.8,0,0,1-.85,1.531,6.016,6.016,0,0,1-5.97,2.15,4.433,4.433,0,0,0,.41.372,4.842,4.842,0,0,0,.55.329,10.784,10.784,0,0,1-3.06-.195,10.188,10.188,0,0,1-5.29-2.832,5.956,5.956,0,0,1-1.51-4.594A6.09,6.09,0,0,0,1235.2,448a6.3,6.3,0,0,0,4.59-.714,8.791,8.791,0,0,1-.95-0.146,6.8,6.8,0,0,1-5.21-8.167,6.726,6.726,0,0,1,1.38-2.755,6.183,6.183,0,0,0-4.18,3.63,7.116,7.116,0,0,0-.76.61,10.058,10.058,0,0,1,2.12-3.357,10.194,10.194,0,0,1,5.04-2.966,4.641,4.641,0,0,0-.38.591,5.771,5.771,0,0,1,3.12-.8,5.654,5.654,0,0,1,4.99,3.348c0.02-.125.03-0.248,0.05-0.374a10.34,10.34,0,0,1,1.51,7.305Zm-10.7-1.319a3.5,3.5,0,0,0,4.77,1.023,3.682,3.682,0,0,0,1.71-2.02,4.488,4.488,0,0,1-.47.309,3.925,3.925,0,0,1-5.35-1.15,3.244,3.244,0,0,1-.46-1.579A3.145,3.145,0,0,0,1235.79,442.829Zm4.91-3.348a2.232,2.232,0,0,0-3.1-.065,2.263,2.263,0,0,0-.8,1.462,1.928,1.928,0,0,1,.24-0.248,2.508,2.508,0,0,1,3.48.07,2.163,2.163,0,0,1,.48.926A2,2,0,0,0,1240.7,439.481Zm2.02-3.982c-2.56-1.665-5.81-1.305-7.25.811a4.183,4.183,0,0,0-.5,3.518,4.115,4.115,0,0,1,.35-0.631c1.61-2.375,5.25-2.778,8.12-.908a7.16,7.16,0,0,1,1.99,1.928A5.623,5.623,0,0,0,1242.72,435.5Zm1.38,3.977a6.53,6.53,0,0,0-4.15-1.931,7.408,7.408,0,0,1,.71.624c2.68,2.7,2.8,6.821.28,9.222a5.958,5.958,0,0,1-2.5,1.409A5.519,5.519,0,0,0,1244.1,439.476Zm-39.6,27.011c-0.8,0-.84-0.226-0.09-0.5l15.63-5.71a4.637,4.637,0,0,1,2.74,0l15.63,5.71c0.76,0.276.72,0.5-.09,0.5H1204.5Zm4.46-30.269a6.606,6.606,0,0,1,1.38,2.755,6.8,6.8,0,0,1-5.21,8.167,8.791,8.791,0,0,1-.95.146,6.3,6.3,0,0,0,4.59.714,6.09,6.09,0,0,0,4.77-5.522,5.955,5.955,0,0,1-1.51,4.593,10.188,10.188,0,0,1-5.29,2.832,10.784,10.784,0,0,1-3.06.195,4.208,4.208,0,0,0,.55-0.329,4.433,4.433,0,0,0,.41-0.372,5.993,5.993,0,0,1-5.96-2.15,5.565,5.565,0,0,1-.86-1.531c0.03,0.021.05,0.047,0.08,0.068a7.586,7.586,0,0,1-.34-1.083,5.186,5.186,0,0,1-.08-0.553l-0.03.057a10.173,10.173,0,0,1,.26-4.551,10.4,10.4,0,0,1,1.25-2.754c0.02,0.126.03,0.249,0.05,0.374a5.654,5.654,0,0,1,4.99-3.348,5.771,5.771,0,0,1,3.12.8,6,6,0,0,0-.37-0.591,10.21,10.21,0,0,1,5.03,2.966,10.052,10.052,0,0,1,2.12,3.358,7.249,7.249,0,0,0-.76-0.611A6.162,6.162,0,0,0,1208.96,436.218Zm-0.78,6.611a3.145,3.145,0,0,0-.2-3.417,3.244,3.244,0,0,1-.46,1.579,3.925,3.925,0,0,1-5.35,1.15,4.488,4.488,0,0,1-.47-0.309,3.723,3.723,0,0,0,1.71,2.02A3.5,3.5,0,0,0,1208.18,442.829Zm-1-1.951a2.323,2.323,0,0,0-.81-1.462,2.22,2.22,0,0,0-3.09.065,1.981,1.981,0,0,0-.31,2.145,2.163,2.163,0,0,1,.48-0.926,2.508,2.508,0,0,1,3.48-.07A3.08,3.08,0,0,1,1207.18,440.878Zm-7.55,6.818a5.728,5.728,0,0,0,5.9,1.1,5.958,5.958,0,0,1-2.5-1.409c-2.52-2.4-2.4-6.526.28-9.222a7.515,7.515,0,0,1,.72-0.624,6.532,6.532,0,0,0-4.16,1.931A5.741,5.741,0,0,0,1199.63,447.7Zm1.62-12.2a5.623,5.623,0,0,0-2.71,4.718,7.16,7.16,0,0,1,1.99-1.928c2.87-1.87,6.51-1.467,8.12.908a4.115,4.115,0,0,1,.35.631,4.183,4.183,0,0,0-.5-3.518C1207.06,434.194,1203.81,433.834,1201.25,435.5Zm-7.55,32.772a10.2,10.2,0,0,1-2.02,3.419,5.824,5.824,0,0,0,.19-0.944,5.981,5.981,0,0,0,1.28-5.327,6.734,6.734,0,0,1-1.82,2.5,7.066,7.066,0,0,1-9.82-.616,8.509,8.509,0,0,1-.58-0.752,6.027,6.027,0,0,0,1.53,4.3,6.292,6.292,0,0,0,7.23,1.488,6.307,6.307,0,0,1-5.1.814,10.214,10.214,0,0,1-4.8-3.149,10.386,10.386,0,0,1-1.63-2.546,5.511,5.511,0,0,0,.56.314,4.339,4.339,0,0,0,.53.178,5.686,5.686,0,0,1-.89-6.157,5.6,5.6,0,0,1,.97-1.46c-0.01.032-.02,0.062-0.03,0.091a8.223,8.223,0,0,1,.89-0.854c0.13-.094.25-0.194,0.39-0.277l-0.05,0a10.694,10.694,0,0,1,4.2-1.936,10.817,10.817,0,0,1,3.07-.226c-0.11.071-.21,0.146-0.31,0.219a5.671,5.671,0,0,1,5.37,2.713,5.325,5.325,0,0,1,.76,3.066,4.023,4.023,0,0,0,.37-0.628A9.766,9.766,0,0,1,1193.7,468.271Zm-6.86-.385a3.3,3.3,0,0,0,2.98-1.792,3.524,3.524,0,0,1-1.64.353,3.823,3.823,0,0,1-3.57-4.07,4.857,4.857,0,0,1,.05-0.546,3.671,3.671,0,0,0-1.01,2.426A3.417,3.417,0,0,0,1186.84,467.886Zm1.38-2.122a3.379,3.379,0,0,1-.1.328,2.36,2.36,0,0,0,.93-1.386,2.149,2.149,0,0,0-1.52-2.637,2.1,2.1,0,0,0-2.08.752,2.182,2.182,0,0,1,1.06-.018A2.4,2.4,0,0,1,1188.22,465.764Zm-9.82-2.943a5.456,5.456,0,0,0,1.81,5.61,5.761,5.761,0,0,1,.08-2.824c0.97-3.308,4.73-5.158,8.43-4.131a8.708,8.708,0,0,1,.9.321,6.437,6.437,0,0,0-3.7-2.66C1182.62,458.217,1179.26,459.868,1178.4,462.821Zm11.75-4.382a5.918,5.918,0,0,0-5.54-.1,7.433,7.433,0,0,1,2.68.8c3.05,1.589,4.41,4.914,3.04,7.432a4.337,4.337,0,0,1-.4.6,4.324,4.324,0,0,0,2.92-2.1C1194.07,462.821,1192.86,459.852,1190.15,458.439Zm-18.18,56.007,4.88,13.056,1.16-.5c0.7-.295,1.42-0.585,2.15-0.866h0c0.01,0,.01,0,0.01-0.006,1.01-.383,2.05-0.745,3.11-1.1,0.27-.087.53-0.175,0.8-0.261,1.07-.343,2.16-0.677,3.28-0.99h0a0.033,0.033,0,0,0,.02-0.007l0.86,2.994c-6.41,1.611-13.25,4.709-19.16,7.229l2.37-10.909-8.46-5.395A88.662,88.662,0,0,1,1171.97,514.446Zm94.21,12.692,1.18,0.449,4.42-13.21a88.854,88.854,0,0,1,9.2,3.32l-8.46,5.395L1274.89,534c-5.91-2.52-12.74-5.618-19.16-7.229l0.79-2.765C1259.86,524.922,1263.09,525.957,1266.18,527.138Z" transform="translate(-1163 -427)"/>
</svg>
