<svg xmlns="http://www.w3.org/2000/svg" width="113" height="113" viewBox="0 0 113 113">
  <defs>
    <style>
      .cls-1 {
        fill: #9ca542;
        fill-rule: evenodd;
      }
    </style>
  </defs>
  <path id="v.svg" class="cls-1" d="M1540.83,543l-0.77,0a26.4,26.4,0,0,1-4.35-.51,2.619,2.619,0,0,1-2.02-2.566,2.553,2.553,0,0,1,2.13-2.477c3.26-.58,5.46-1.655,6.53-3.206a4.32,4.32,0,0,0,.7-1.741,36.719,36.719,0,0,1-16.15-22.955,36.582,36.582,0,0,1,27.97-43.523,39.4,39.4,0,0,1,4.38-.712c1.21-.11,2.36-0.171,3.51-0.171a36.9,36.9,0,0,1,35.85,28.719,36.066,36.066,0,0,1-4.94,27.508,37.045,37.045,0,0,1-27.4,16.715,36.941,36.941,0,0,1-6.99-.016,34.458,34.458,0,0,1-6.72,3.051,35.819,35.819,0,0,1-8.17,1.741C1543.06,542.964,1541.92,543,1540.83,543Zm-3.2-3.046c0.89,0.124,1.75.182,2.51,0.221h0.69c1.01,0,2.07-.033,3.13-0.127a32.854,32.854,0,0,0,7.71-1.617,32.229,32.229,0,0,0,6.57-3.034l0.41-.24,0.47,0.049a34.122,34.122,0,0,0,6.88.064,35.444,35.444,0,0,0,4.04-.657,33.62,33.62,0,0,0,21.25-14.781,33.246,33.246,0,0,0,4.56-25.37,34.054,34.054,0,0,0-33.09-26.5c-1.06,0-2.14.061-3.24,0.16a36.451,36.451,0,0,0-4.05.657,33.663,33.663,0,0,0-21.25,14.77,33.3,33.3,0,0,0-4.56,25.386,33.893,33.893,0,0,0,15.57,21.591l0.64,0.392,0.04,0.75a6.954,6.954,0,0,1-1.23,4.177C1543.32,537.792,1540.96,539.171,1537.63,539.954Zm100.66-72.39a30.934,30.934,0,0,0-23.66-36.817,34.038,34.038,0,0,0-3.72-.6c-1.01-.091-1.99-0.144-2.97-0.144a30.854,30.854,0,0,0-30.74,35.108,39.74,39.74,0,0,1,23.56,25.864c0.17,0.042.34,0.1,0.52,0.141a32.16,32.16,0,0,0,3.7.6c0.96,0.092,1.9.127,2.86,0.127a32.684,32.684,0,0,0,3.45-.185,29.339,29.339,0,0,0,6.02,2.781,30.108,30.108,0,0,0,6.92,1.476l0.15,0.009c0.97,0.085,1.94.115,2.87,0.115,0.23,0,.44,0,0.66,0a21.994,21.994,0,0,0,3.58-.423,1.049,1.049,0,0,0,.8-1.026,1.019,1.019,0,0,0-.86-0.971c-3.16-.563-5.38-1.661-6.54-3.338a4.84,4.84,0,0,1-.87-2.908A31.025,31.025,0,0,0,1638.29,467.564Zm-30.5,12.144a4.457,4.457,0,0,1-3.26,1.335,4.381,4.381,0,0,1-3.29-1.374,4.591,4.591,0,0,1,.02-6.483,4.6,4.6,0,0,1,6.53-.016A4.633,4.633,0,0,1,1607.79,479.708Zm7.83-17.67a9.04,9.04,0,0,1-6.33,2.469,10.534,10.534,0,0,1-3.21-.535v4.69h-3.16V460.2h2.42a2.17,2.17,0,0,0,1.78.861,2.519,2.519,0,0,0,2.26-1.313,7.35,7.35,0,0,0,.8-3.8,14,14,0,0,0-1.01-6.064,3.238,3.238,0,0,0-3.04-2.025q-2.01,0-2.67,2.306c-0.57,1.948-1.58,2.919-3.04,2.919a3.1,3.1,0,0,1-1.94-.706,2.228,2.228,0,0,1-.88-1.81c0-1.437.87-2.728,2.63-3.87a11.946,11.946,0,0,1,6.63-1.714,11.762,11.762,0,0,1,8.33,2.886,9.781,9.781,0,0,1,3.12,7.52A8.549,8.549,0,0,1,1615.62,462.038Zm-68.08,47.47a4.1,4.1,0,0,1,3.06,1.347,4.468,4.468,0,0,1,0,6.3,4.524,4.524,0,0,1-4.88.929,4.532,4.532,0,0,1-1.43-.946,4.06,4.06,0,0,1-.96-1.412,4.445,4.445,0,0,1-.35-1.758,4.252,4.252,0,0,1,1.31-3.15A4.479,4.479,0,0,1,1547.54,509.508Zm15.3,0a4.147,4.147,0,0,1,3.08,1.347,4.492,4.492,0,0,1,0,6.3,4.521,4.521,0,0,1-3.16,1.274,4.411,4.411,0,0,1-1.74-.345,4.769,4.769,0,0,1-1.43-.946,4.514,4.514,0,0,1-.96-1.412,4.431,4.431,0,0,1-.32-1.758,4.3,4.3,0,0,1,1.28-3.15A4.479,4.479,0,0,1,1562.84,509.508Zm15.32,0a4.1,4.1,0,0,1,3.06,1.347,4.443,4.443,0,0,1,0,6.3,4.524,4.524,0,0,1-4.88.929,4.532,4.532,0,0,1-1.43-.946,4.2,4.2,0,0,1-.96-1.412,4.44,4.44,0,0,1-.34-1.758,4.281,4.281,0,0,1,1.3-3.15A4.5,4.5,0,0,1,1578.16,509.508Z" transform="translate(-1526.03 -430)"/>
</svg>
